<svg xmlns="http://www.w3.org/2000/svg" xmlns:xlink="http://www.w3.org/1999/xlink" viewBox="2.684 -3.515 381.39 82.256" width="580" height="122" style="background-color:#3f69b8">
  <defs>
    <path d="m95.07 60.95-6.64-4 4.79-13.18-17.29-25-21.21 5.5-19.79 5.5L20.55 19.1 10.18 31.77" id="cpOv8Y6Ru"/>
    <path d="M174.79 2.76c2.58 0 4.68 2.1 4.68 4.68v23.33c0 2.58-2.1 4.68-4.68 4.68h-61.44c-2.58 0-4.68-2.1-4.68-4.68V7.44c0-2.58 2.1-4.68 4.68-4.68h61.44Z" id="agNcJVAHg"/>
    <path d="m88.43 56.95-15.5 2.5-24.71-18.07-38.04-9.61" id="a21WvlZiXo"/>
    <path d="M79.43 59.45a6.5 6.5 0 1 1-13 0 6.5 6.5 0 0 1 13 0Z" id="g7g8kcl5OU"/>
    <path d="m93.22 43.77-37.79-19.5L60.22 5.7l-23.29 6.57" id="b2Hetrpwpy"/>
    <path d="m30.43 42.77 4.5-13" id="gvyu2zvkY"/>
    <path d="M48.22 41.38 36.93 13.2" id="b4uMXk2HFY"/>
    <path d="M60.22 24.27c0 3.04-2.46 5.5-5.5 5.5-3.03 0-5.5-2.46-5.5-5.5 0-3.03 2.47-5.5 5.5-5.5 3.04 0 5.5 2.47 5.5 5.5Z" id="e2cboCoAnw"/>
    <path d="M57.88 24.29a3.139 3.139 0 1 1-6.28 0c0-1.74 1.4-3.14 3.14-3.14 1.73 0 3.14 1.4 3.14 3.14Z" id="b5dP8xBYVW"/>
    <path d="M54.72 41.38c0 3.58-2.91 6.5-6.5 6.5s-6.5-2.92-6.5-6.5a6.5 6.5 0 1 1 13 0Z" id="acQNYkRLg"/>
    <path d="M98.72 42.77a6.5 6.5 0 1 1-13 0 6.5 6.5 0 0 1 13 0Z" id="a6u11scCWb"/>
    <path d="M95.95 42.79c0 2.05-1.66 3.71-3.71 3.71s-3.71-1.66-3.71-3.71 1.66-3.71 3.71-3.71 3.71 1.66 3.71 3.71Z" id="d3IERwUKvp"/>
    <path d="m53.72 56.95 18.71-14.18 3.5-23.67" id="aZDZ8EJL6"/>
    <path d="M43.43 13.2a6.5 6.5 0 1 1-13 0 6.5 6.5 0 0 1 13 0Z" id="k2Lr7fZfVD"/>
    <path d="M64.22 5.7c0 2.21-1.79 4-4 4s-4-1.79-4-4 1.79-4 4-4 4 1.79 4 4Z" id="duDJVrz5n"/>
    <path d="M62.52 5.71c0 1.26-1.03 2.28-2.29 2.28a2.279 2.279 0 1 1 0-4.56c1.26 0 2.29 1.02 2.29 2.28Z" id="ayIbKo1Nt"/>
    <path d="M76.43 42.77c0 2.21-1.79 4-4 4s-4-1.79-4-4 1.79-4 4-4 4 1.79 4 4Z" id="c1eIlO5ldd"/>
    <path d="M74.72 42.78c0 1.26-1.02 2.29-2.28 2.29-1.26 0-2.28-1.03-2.28-2.29a2.279 2.279 0 1 1 4.56 0Z" id="f4mnf1tza5"/>
    <path d="M24.55 18.77a3.999 3.999 0 1 1-8 0 3.999 3.999 0 1 1 8 0Z" id="aa2XZ5M5O"/>
    <path d="M22.84 18.78c0 1.26-1.02 2.29-2.28 2.29-1.26 0-2.29-1.03-2.29-2.29s1.03-2.28 2.29-2.28 2.28 1.02 2.28 2.28Z" id="dQ6drDsUu"/>
    <path d="M92.43 56.95c0 2.21-1.79 4-4 4s-4-1.79-4-4 1.79-4 4-4 4 1.79 4 4Z" id="bmHV9Syt6"/>
    <path d="M90.72 56.96c0 1.26-1.02 2.29-2.28 2.29-1.26 0-2.28-1.03-2.28-2.29a2.279 2.279 0 1 1 4.56 0Z" id="a3HX1GiA1O"/>
    <path d="M82.43 18.77a6.5 6.5 0 1 1-13 0 6.5 6.5 0 0 1 13 0Z" id="a16Bhbi6AS"/>
    <path d="M57.72 56.95c0 2.21-1.79 4-4 4s-4-1.79-4-4 1.79-4 4-4 4 1.79 4 4Z" id="e76e3RoHAb"/>
    <path d="M56.02 56.96c0 1.26-1.03 2.29-2.29 2.29s-2.28-1.03-2.28-2.29 1.02-2.28 2.28-2.28c1.26 0 2.29 1.02 2.29 2.28Z" id="ca4XnnYOF"/>
    <path d="M38.93 29.77c0 2.21-1.79 4-4 4s-4-1.79-4-4 1.79-4 4-4 4 1.79 4 4Z" id="a1BPZprC6p"/>
    <path d="M37.22 29.78c0 1.26-1.02 2.29-2.28 2.29-1.26 0-2.28-1.03-2.28-2.29a2.279 2.279 0 1 1 4.56 0Z" id="e1V3QTZxiP"/>
    <path d="M16.68 31.77a6.5 6.5 0 1 1-13 0 6.5 6.5 0 0 1 13 0Z" id="b1CDYu5y1P"/>
    <text id="a1qjqRMipJ" x="179" y="88.4" font-size="28" font-family="Poppins" font-style="normal" letter-spacing="0" alignment-baseline="before-edge" transform="translate(-63.611 -90.915)" style="line-height:100%" xml:space="preserve" dominant-baseline="text-before-edge">
      <tspan x="178.5" dy=".08em">web</tspan>
    </text>
    <text id="cvPED4xOy" x="106.66" y="121.55" font-size="30" font-family="Poppins" font-style="normal" letter-spacing="0" alignment-baseline="before-edge" transform="translate(-.286 -94)" style="line-height:100%" xml:space="preserve" dominant-baseline="text-before-edge">
      <tspan x="106.66" dy=".08em">machinelearning</tspan>
    </text>
    <style>
      @import url(https://fonts.googleapis.com/css2?family=Poppins:wght@400&amp;display=swap);
    </style>
  </defs>
  <use xlink:href="#cpOv8Y6Ru" fill-opacity="0" stroke="#fff"/>
  <use xlink:href="#agNcJVAHg" fill="#fff" fill-opacity=".4"/>
  <use xlink:href="#a1qjqRMipJ" fill="#fff" id="c2qC5pZasR"/>
  <use xlink:href="#cvPED4xOy" fill="#fff" id="asK9Mn2P0"/>
  <use xlink:href="#a21WvlZiXo" fill-opacity="0" stroke="#fff"/>
  <use xlink:href="#g7g8kcl5OU" fill="#fff"/>
  <use xlink:href="#b2Hetrpwpy" fill-opacity="0" stroke="#fff"/>
  <use xlink:href="#gvyu2zvkY" fill-opacity="0" stroke="#fff"/>
  <use xlink:href="#b4uMXk2HFY" fill-opacity="0" stroke="#fff"/>
  <use xlink:href="#e2cboCoAnw" fill="#fff"/>
  <use xlink:href="#b5dP8xBYVW" fill="#3f69b8"/>
  <use xlink:href="#acQNYkRLg" fill="#fff"/>
  <use xlink:href="#a6u11scCWb" fill="#fff"/>
  <use xlink:href="#d3IERwUKvp" fill="#3f69b8"/>
  <use xlink:href="#aZDZ8EJL6" fill-opacity="0" stroke="#fff"/>
  <use xlink:href="#k2Lr7fZfVD" fill="#fff"/>
  <use xlink:href="#duDJVrz5n" fill="#fff"/>
  <use xlink:href="#ayIbKo1Nt" fill="#3f69b8"/>
  <use xlink:href="#c1eIlO5ldd" fill="#fff"/>
  <use xlink:href="#f4mnf1tza5" fill="#3f69b8"/>
  <use xlink:href="#aa2XZ5M5O" fill="#fff"/>
  <use xlink:href="#dQ6drDsUu" fill="#3f69b8"/>
  <use xlink:href="#bmHV9Syt6" fill="#fff"/>
  <use xlink:href="#a3HX1GiA1O" fill="#3f69b8"/>
  <use xlink:href="#a16Bhbi6AS" fill="#fff"/>
  <use xlink:href="#e76e3RoHAb" fill="#fff"/>
  <use xlink:href="#ca4XnnYOF" fill="#3f69b8"/>
  <use xlink:href="#a1BPZprC6p" fill="#fff"/>
  <use xlink:href="#e1V3QTZxiP" fill="#3f69b8"/>
  <use xlink:href="#b1CDYu5y1P" fill="#fff"/>
  <use xlink:href="#l4Kyxf2AdM" fill-opacity="0" stroke="#61bafb"/>
</svg>
