<svg xmlns="http://www.w3.org/2000/svg" xmlns:xlink="http://www.w3.org/1999/xlink" viewBox="2.684 -3.515 381.39 82.256" width="580" height="122">
  <defs>
    <path d="m95.07 60.95-6.64-4 4.79-13.18-17.29-25-21.21 5.5-19.79 5.5L20.55 19.1 10.18 31.77" id="eAo7qjbnf"/>
    <path d="M174.79 2.76c2.58 0 4.68 2.1 4.68 4.68v23.33c0 2.58-2.1 4.68-4.68 4.68h-61.44c-2.58 0-4.68-2.1-4.68-4.68V7.44c0-2.58 2.1-4.68 4.68-4.68h61.44Z" id="dYOjppROw"/>
    <path d="m88.43 56.95-15.5 2.5-24.71-18.07-38.04-9.61" id="b1BIlwwvb0"/>
    <path d="M79.43 59.45a6.5 6.5 0 1 1-13 0 6.5 6.5 0 0 1 13 0Z" id="b7fle6phwZ"/>
    <path d="m93.22 43.77-37.79-19.5L60.22 5.7l-23.29 6.57" id="b8c1Eo8bD"/>
    <path d="m30.43 42.77 4.5-13" id="bmucpCtsg"/>
    <path d="M48.22 41.38 36.93 13.2" id="betfffFIz"/>
    <path d="M60.22 24.27c0 3.04-2.46 5.5-5.5 5.5-3.03 0-5.5-2.46-5.5-5.5 0-3.03 2.47-5.5 5.5-5.5 3.04 0 5.5 2.47 5.5 5.5Z" id="aG97fEUTs"/>
    <path d="M57.88 24.29a3.139 3.139 0 1 1-6.28 0c0-1.74 1.4-3.14 3.14-3.14 1.73 0 3.14 1.4 3.14 3.14Z" id="b1vRXDDaX2"/>
    <path d="M54.72 41.38c0 3.58-2.91 6.5-6.5 6.5s-6.5-2.92-6.5-6.5a6.5 6.5 0 1 1 13 0Z" id="a1CgRoT8YS"/>
    <path d="M98.72 42.77a6.5 6.5 0 1 1-13 0 6.5 6.5 0 0 1 13 0Z" id="cJEYOOpi"/>
    <path d="M95.95 42.79c0 2.05-1.66 3.71-3.71 3.71s-3.71-1.66-3.71-3.71 1.66-3.71 3.71-3.71 3.71 1.66 3.71 3.71Z" id="bamEbxyoJ"/>
    <path d="m53.72 56.95 18.71-14.18 3.5-23.67" id="aG6sVC1Dv"/>
    <path d="M43.43 13.2a6.5 6.5 0 1 1-13 0 6.5 6.5 0 0 1 13 0Z" id="k2njDLsd4R"/>
    <path d="M64.22 5.7c0 2.21-1.79 4-4 4s-4-1.79-4-4 1.79-4 4-4 4 1.79 4 4Z" id="dlijgt4Eb"/>
    <path d="M62.52 5.71c0 1.26-1.03 2.28-2.29 2.28a2.279 2.279 0 1 1 0-4.56c1.26 0 2.29 1.02 2.29 2.28Z" id="c2jAYoWLi"/>
    <path d="M76.43 42.77c0 2.21-1.79 4-4 4s-4-1.79-4-4 1.79-4 4-4 4 1.79 4 4Z" id="b2ILSul7I"/>
    <path d="M74.72 42.78c0 1.26-1.02 2.29-2.28 2.29-1.26 0-2.28-1.03-2.28-2.29a2.279 2.279 0 1 1 4.56 0Z" id="bb1S8B25S"/>
    <path d="M24.55 18.77a3.999 3.999 0 1 1-8 0 3.999 3.999 0 1 1 8 0Z" id="b1OfNWcplH"/>
    <path d="M22.84 18.78c0 1.26-1.02 2.29-2.28 2.29-1.26 0-2.29-1.03-2.29-2.29s1.03-2.28 2.29-2.28 2.28 1.02 2.28 2.28Z" id="b3cWwgsxeW"/>
    <path d="M92.43 56.95c0 2.21-1.79 4-4 4s-4-1.79-4-4 1.79-4 4-4 4 1.79 4 4Z" id="ajRGwcIVz"/>
    <path d="M90.72 56.96c0 1.26-1.02 2.29-2.28 2.29-1.26 0-2.28-1.03-2.28-2.29a2.279 2.279 0 1 1 4.56 0Z" id="a6NA15HhMO"/>
    <path d="M82.43 18.77a6.5 6.5 0 1 1-13 0 6.5 6.5 0 0 1 13 0Z" id="b1YNMoV8at"/>
    <path d="M57.72 56.95c0 2.21-1.79 4-4 4s-4-1.79-4-4 1.79-4 4-4 4 1.79 4 4Z" id="b1sqXqJU5Z"/>
    <path d="M56.02 56.96c0 1.26-1.03 2.29-2.29 2.29s-2.28-1.03-2.28-2.29 1.02-2.28 2.28-2.28c1.26 0 2.29 1.02 2.29 2.28Z" id="bJ2h4WJZD"/>
    <path d="M38.93 29.77c0 2.21-1.79 4-4 4s-4-1.79-4-4 1.79-4 4-4 4 1.79 4 4Z" id="f1JVFGpnQj"/>
    <path d="M37.22 29.78c0 1.26-1.02 2.29-2.28 2.29-1.26 0-2.28-1.03-2.28-2.29a2.279 2.279 0 1 1 4.56 0Z" id="b7pXenYoF"/>
    <path d="M16.68 31.77a6.5 6.5 0 1 1-13 0 6.5 6.5 0 0 1 13 0Z" id="hb9a9SXqW"/>
    <text id="e1rpgW2sDO" x="179" y="88.4" font-size="28" font-family="Poppins" font-style="normal" letter-spacing="0" alignment-baseline="before-edge" transform="translate(-63.611 -90.915)" style="line-height:100%" xml:space="preserve" dominant-baseline="text-before-edge">
      <tspan x="178.5" dy=".08em">web</tspan>
    </text>
    <text id="lJUF2AdVr" x="106.66" y="121.55" font-size="30" font-family="Poppins" font-style="normal" letter-spacing="0" alignment-baseline="before-edge" transform="translate(-.286 -94)" style="line-height:100%" xml:space="preserve" dominant-baseline="text-before-edge">
      <tspan x="106.66" dy=".08em">machinelearning</tspan>
    </text>
    <style>
      @import url(https://fonts.googleapis.com/css2?family=Poppins:wght@400&amp;display=swap);
    </style>
  </defs>
  <use xlink:href="#eAo7qjbnf" fill-opacity="0" stroke="#61bafb"/>
  <use xlink:href="#dYOjppROw" fill="#61bafb"/>
  <use xlink:href="#e1rpgW2sDO" fill="#fff" id="aXEHbCbeV"/>
  <use xlink:href="#lJUF2AdVr" fill="#4777c0" id="ab1qeEg58"/>
  <use xlink:href="#b1BIlwwvb0" fill-opacity="0" stroke="#61bafb"/>
  <use xlink:href="#b7fle6phwZ" fill="#4777c0"/>
  <use xlink:href="#b8c1Eo8bD" fill-opacity="0" stroke="#61bafb"/>
  <use xlink:href="#bmucpCtsg" fill-opacity="0" stroke="#61bafb"/>
  <use xlink:href="#betfffFIz" fill-opacity="0" stroke="#61bafb"/>
  <use xlink:href="#aG97fEUTs" fill="#61bafb"/>
  <use xlink:href="#b1vRXDDaX2" fill="#fff"/>
  <use xlink:href="#a1CgRoT8YS" fill="#4777c0"/>
  <use xlink:href="#cJEYOOpi" fill="#61bafb"/>
  <use xlink:href="#bamEbxyoJ" fill="#fff"/>
  <use xlink:href="#aG6sVC1Dv" fill-opacity="0" stroke="#61bafb"/>
  <use xlink:href="#k2njDLsd4R" fill="#4777c0"/>
  <use xlink:href="#dlijgt4Eb" fill="#61bafb"/>
  <use xlink:href="#c2jAYoWLi" fill="#fff"/>
  <use xlink:href="#b2ILSul7I" fill="#61bafb"/>
  <use xlink:href="#bb1S8B25S" fill="#fff"/>
  <use xlink:href="#b1OfNWcplH" fill="#61bafb"/>
  <use xlink:href="#b3cWwgsxeW" fill="#fff"/>
  <use xlink:href="#ajRGwcIVz" fill="#61bafb"/>
  <use xlink:href="#a6NA15HhMO" fill="#fff"/>
  <use xlink:href="#b1YNMoV8at" fill="#4777c0"/>
  <use xlink:href="#b1sqXqJU5Z" fill="#61bafb"/>
  <use xlink:href="#bJ2h4WJZD" fill="#fff"/>
  <use xlink:href="#f1JVFGpnQj" fill="#61bafb"/>
  <use xlink:href="#b7pXenYoF" fill="#fff"/>
  <use xlink:href="#hb9a9SXqW" fill="#4777c0"/>
  <use xlink:href="#l4Kyxf2AdM" fill-opacity="0" stroke="#61bafb"/>
</svg>
